<?xml version="1.0" standalone="no"?>
<!DOCTYPE svg PUBLIC "-//W3C//DTD SVG 20010904//EN"
 "http://www.w3.org/TR/2001/REC-SVG-20010904/DTD/svg10.dtd">
<svg version="1.0" xmlns="http://www.w3.org/2000/svg"
 width="512.000000pt" height="512.000000pt" viewBox="0 0 512.000000 512.000000"
 preserveAspectRatio="xMidYMid meet">
<metadata>
Created by potrace 1.11, written by Peter Selinger 2001-2013
</metadata>
<g transform="translate(0.000000,512.000000) scale(0.100000,-0.100000)"
fill="#000000" stroke="none">
<path d="M529 3578 c-100 -199 -178 -449 -216 -689 -24 -158 -24 -500 0 -656
77 -489 280 -897 616 -1246 193 -200 384 -339 636 -462 230 -113 430 -175 684
-212 159 -23 466 -23 621 0 498 76 912 278 1267 621 362 347 589 792 670 1306
24 158 24 489 -1 650 -25 161 -79 365 -133 500 -45 113 -119 270 -127 270 -3
0 14 -39 36 -87 136 -293 207 -660 195 -998 -17 -459 -167 -888 -437 -1250
-345 -462 -837 -763 -1415 -866 -111 -20 -164 -23 -365 -23 -265 0 -392 16
-614 80 -832 240 -1447 938 -1581 1799 -23 142 -30 408 -16 546 25 242 99 520
190 715 22 46 38 84 35 84 -2 0 -22 -37 -45 -82z"/>
<path d="M1530 2838 c0 -542 2 -561 62 -687 60 -127 201 -238 343 -271 74 -18
220 -16 294 4 144 37 267 138 331 270 64 134 65 146 65 686 l0 485 -57 3 -58
3 0 -488 c0 -521 -2 -543 -51 -648 -34 -73 -111 -150 -187 -187 -59 -29 -77
-33 -168 -36 -84 -4 -116 0 -171 17 -121 37 -215 131 -265 264 -22 61 -22 70
-26 570 l-3 507 -55 0 -54 0 0 -492z"/>
<path d="M3223 2905 c-161 -35 -274 -148 -329 -331 -26 -83 -26 -285 0 -369
37 -123 90 -203 172 -261 159 -113 435 -92 565 42 32 33 32 34 14 54 -24 26
-41 25 -79 -4 -88 -67 -196 -94 -300 -75 -74 13 -120 36 -167 83 -169 170
-156 575 24 717 114 90 304 93 432 6 42 -29 56 -27 76 10 12 23 11 27 -11 45
-44 36 -134 76 -195 87 -74 14 -124 13 -202 -4z"/>
</g>
</svg>
