<?xml version="1.0" encoding="utf-8"?>
<!-- Generator: Adobe Illustrator 17.0.0, SVG Export Plug-In . SVG Version: 6.00 Build 0)  -->
<!DOCTYPE svg PUBLIC "-//W3C//DTD SVG 1.1//EN" "http://www.w3.org/Graphics/SVG/1.1/DTD/svg11.dtd">
<svg version="1.1" id="Calque_1" xmlns="http://www.w3.org/2000/svg" xmlns:xlink="http://www.w3.org/1999/xlink" x="0px" y="0px"
	 width="349.319px" height="64.887px" viewBox="0 0 349.319 64.887" enable-background="new 0 0 349.319 64.887"
	 xml:space="preserve">
<g id="_x28_Un_x29_colored">
	<linearGradient id="SVGID_1_" gradientUnits="userSpaceOnUse" x1="-9.4593" y1="66.9935" x2="810.564" y2="-1353.3285">
		<stop  offset="0" style="stop-color:#212121"/>
		<stop  offset="0.1364" style="stop-color:#212224"/>
		<stop  offset="0.2448" style="stop-color:#20252E"/>
		<stop  offset="0.3436" style="stop-color:#1F293F"/>
		<stop  offset="0.4366" style="stop-color:#1E3057"/>
		<stop  offset="0.5257" style="stop-color:#1C3875"/>
		<stop  offset="0.6117" style="stop-color:#1A439B"/>
		<stop  offset="0.6953" style="stop-color:#184FC7"/>
		<stop  offset="0.775" style="stop-color:#155DF9"/>
		<stop  offset="0.7833" style="stop-color:#155FFF"/>
		<stop  offset="0.9064" style="stop-color:#FF4215"/>
		<stop  offset="1" style="stop-color:#2AFF55"/>
	</linearGradient>
	<path fill="url(#SVGID_1_)" d="M3.043,32.461c0,5.411,0.73,10.597,2.192,15.56c1.461,4.963,3.641,9.751,6.539,14.365
		c0.241,0.41,0.308,0.742,0.199,0.996c-0.109,0.254-0.26,0.441-0.453,0.561l-1.522,0.942c-1.86-2.85-3.424-5.61-4.692-8.279
		c-1.268-2.669-2.295-5.326-3.079-7.97c-0.785-2.645-1.353-5.295-1.703-7.952C0.175,38.029,0,35.287,0,32.461
		s0.175-5.573,0.525-8.242c0.35-2.669,0.918-5.326,1.703-7.97c0.784-2.645,1.811-5.301,3.079-7.97C6.576,5.61,8.139,2.85,9.999,0
		l1.522,0.942c0.193,0.121,0.344,0.308,0.453,0.562c0.109,0.254,0.042,0.586-0.199,0.996c-2.898,4.614-5.078,9.401-6.539,14.365
		C3.774,21.828,3.043,27.027,3.043,32.461z"/>
	<linearGradient id="SVGID_2_" gradientUnits="userSpaceOnUse" x1="7.604" y1="80.9021" x2="268.1403" y2="-370.36">
		<stop  offset="0" style="stop-color:#212121"/>
		<stop  offset="0.1364" style="stop-color:#212224"/>
		<stop  offset="0.2448" style="stop-color:#20252E"/>
		<stop  offset="0.3436" style="stop-color:#1F293F"/>
		<stop  offset="0.4366" style="stop-color:#1E3057"/>
		<stop  offset="0.5257" style="stop-color:#1C3875"/>
		<stop  offset="0.6117" style="stop-color:#1A439B"/>
		<stop  offset="0.6953" style="stop-color:#184FC7"/>
		<stop  offset="0.775" style="stop-color:#155DF9"/>
		<stop  offset="0.7833" style="stop-color:#155FFF"/>
		<stop  offset="0.9064" style="stop-color:#FF4215"/>
		<stop  offset="1" style="stop-color:#2AFF55"/>
	</linearGradient>
	<path fill="url(#SVGID_2_)" d="M41.047,52.641c2.464,0,4.667-0.429,6.612-1.286c1.944-0.857,3.592-2.047,4.945-3.569
		c1.352-1.522,2.385-3.315,3.098-5.38c0.712-2.065,1.069-4.293,1.069-6.684v-31.7h3.695v31.7c0,2.826-0.447,5.465-1.34,7.916
		c-0.894,2.452-2.18,4.589-3.858,6.413c-1.679,1.824-3.72,3.255-6.123,4.293c-2.404,1.038-5.103,1.558-8.097,1.558
		c-2.995,0-5.694-0.52-8.097-1.558c-2.404-1.038-4.444-2.469-6.123-4.293c-1.679-1.823-2.965-3.961-3.858-6.413
		c-0.894-2.451-1.341-5.09-1.341-7.916v-31.7h3.732v31.664c0,2.391,0.356,4.619,1.069,6.684c0.712,2.065,1.739,3.858,3.08,5.38
		c1.34,1.522,2.983,2.717,4.927,3.587C36.379,52.206,38.584,52.641,41.047,52.641z"/>
	<linearGradient id="SVGID_3_" gradientUnits="userSpaceOnUse" x1="20.2051" y1="152.145" x2="279.4097" y2="-296.8105">
		<stop  offset="0" style="stop-color:#212121"/>
		<stop  offset="0.1364" style="stop-color:#212224"/>
		<stop  offset="0.2448" style="stop-color:#20252E"/>
		<stop  offset="0.3436" style="stop-color:#1F293F"/>
		<stop  offset="0.4366" style="stop-color:#1E3057"/>
		<stop  offset="0.5257" style="stop-color:#1C3875"/>
		<stop  offset="0.6117" style="stop-color:#1A439B"/>
		<stop  offset="0.6953" style="stop-color:#184FC7"/>
		<stop  offset="0.775" style="stop-color:#155DF9"/>
		<stop  offset="0.7833" style="stop-color:#155FFF"/>
		<stop  offset="0.9064" style="stop-color:#FF4215"/>
		<stop  offset="1" style="stop-color:#2AFF55"/>
	</linearGradient>
	<path fill="url(#SVGID_3_)" d="M75.646,25.541c1.667-2.077,3.592-3.743,5.779-5c2.186-1.256,4.619-1.884,7.3-1.884
		c1.98,0,3.725,0.314,5.235,0.942c1.509,0.628,2.759,1.534,3.75,2.717c0.99,1.184,1.738,2.609,2.246,4.275
		c0.508,1.667,0.761,3.55,0.761,5.652v23.042h-3.478V32.244c0-3.381-0.774-6.032-2.319-7.952c-1.546-1.92-3.901-2.88-7.065-2.88
		c-2.343,0-4.535,0.598-6.576,1.793c-2.041,1.196-3.858,2.856-5.452,4.981v27.099h-3.478V19.238h1.92
		c0.603,0,0.954,0.302,1.051,0.906L75.646,25.541z"/>
	<linearGradient id="SVGID_4_" gradientUnits="userSpaceOnUse" x1="-160.5974" y1="499.6405" x2="659.4208" y2="-920.6727">
		<stop  offset="0" style="stop-color:#212121"/>
		<stop  offset="0.1364" style="stop-color:#212224"/>
		<stop  offset="0.2448" style="stop-color:#20252E"/>
		<stop  offset="0.3436" style="stop-color:#1F293F"/>
		<stop  offset="0.4366" style="stop-color:#1E3057"/>
		<stop  offset="0.5257" style="stop-color:#1C3875"/>
		<stop  offset="0.6117" style="stop-color:#1A439B"/>
		<stop  offset="0.6953" style="stop-color:#184FC7"/>
		<stop  offset="0.775" style="stop-color:#155DF9"/>
		<stop  offset="0.7833" style="stop-color:#155FFF"/>
		<stop  offset="0.9064" style="stop-color:#FF4215"/>
		<stop  offset="1" style="stop-color:#2AFF55"/>
	</linearGradient>
	<path fill="url(#SVGID_4_)" d="M116.584,32.461c0-5.434-0.731-10.633-2.192-15.597c-1.462-4.963-3.641-9.751-6.539-14.365
		c-0.242-0.41-0.308-0.743-0.199-0.996c0.108-0.254,0.259-0.44,0.453-0.562L109.628,0c1.859,2.85,3.424,5.61,4.692,8.278
		c1.268,2.669,2.294,5.326,3.08,7.97c0.784,2.645,1.352,5.302,1.703,7.97c0.35,2.669,0.525,5.416,0.525,8.242
		s-0.175,5.567-0.525,8.224c-0.351,2.657-0.918,5.308-1.703,7.952c-0.785,2.645-1.812,5.302-3.08,7.97
		c-1.268,2.669-2.832,5.428-4.692,8.279l-1.522-0.942c-0.194-0.121-0.344-0.308-0.453-0.561c-0.109-0.254-0.043-0.586,0.199-0.996
		c2.899-4.614,5.078-9.402,6.539-14.365C115.854,43.058,116.584,37.872,116.584,32.461z"/>
	<linearGradient id="SVGID_5_" gradientUnits="userSpaceOnUse" x1="47.8789" y1="202.4867" x2="282.0152" y2="-203.0492">
		<stop  offset="0" style="stop-color:#212121"/>
		<stop  offset="0.1364" style="stop-color:#212224"/>
		<stop  offset="0.2448" style="stop-color:#20252E"/>
		<stop  offset="0.3436" style="stop-color:#1F293F"/>
		<stop  offset="0.4366" style="stop-color:#1E3057"/>
		<stop  offset="0.5257" style="stop-color:#1C3875"/>
		<stop  offset="0.6117" style="stop-color:#1A439B"/>
		<stop  offset="0.6953" style="stop-color:#184FC7"/>
		<stop  offset="0.775" style="stop-color:#155DF9"/>
		<stop  offset="0.7833" style="stop-color:#155FFF"/>
		<stop  offset="0.9064" style="stop-color:#FF4215"/>
		<stop  offset="1" style="stop-color:#2AFF55"/>
	</linearGradient>
	<path fill="url(#SVGID_5_)" d="M153.791,24.056c-0.121,0.121-0.236,0.224-0.344,0.308c-0.108,0.085-0.26,0.127-0.453,0.127
		c-0.242,0-0.568-0.163-0.978-0.489c-0.411-0.326-0.966-0.682-1.667-1.069c-0.701-0.386-1.576-0.743-2.627-1.069
		c-1.051-0.326-2.325-0.489-3.822-0.489c-2.077,0-3.919,0.369-5.525,1.105c-1.607,0.737-2.965,1.793-4.076,3.17
		c-1.111,1.377-1.951,3.043-2.518,5c-0.568,1.956-0.852,4.155-0.852,6.594c0,2.536,0.296,4.782,0.888,6.739
		c0.591,1.956,1.431,3.605,2.518,4.945c1.087,1.341,2.403,2.361,3.949,3.061c1.546,0.701,3.261,1.051,5.145,1.051
		c1.739,0,3.194-0.205,4.365-0.616c1.171-0.41,2.137-0.857,2.899-1.34c0.761-0.483,1.358-0.93,1.793-1.34
		c0.435-0.411,0.797-0.616,1.087-0.616c0.29,0,0.531,0.121,0.725,0.362l0.906,1.159c-0.556,0.725-1.256,1.401-2.102,2.029
		c-0.845,0.628-1.799,1.172-2.862,1.63c-1.063,0.459-2.216,0.815-3.46,1.069c-1.244,0.254-2.542,0.381-3.895,0.381
		c-2.295,0-4.39-0.417-6.286-1.25c-1.896-0.833-3.527-2.041-4.891-3.623c-1.365-1.582-2.427-3.52-3.188-5.815
		c-0.761-2.294-1.141-4.903-1.141-7.826c0-2.753,0.362-5.265,1.087-7.536c0.725-2.27,1.787-4.226,3.188-5.869
		c1.4-1.642,3.109-2.916,5.126-3.822c2.016-0.906,4.329-1.359,6.938-1.359c2.343,0,4.42,0.375,6.232,1.123
		c1.811,0.749,3.393,1.763,4.746,3.043L153.791,24.056z"/>
	<linearGradient id="SVGID_6_" gradientUnits="userSpaceOnUse" x1="76.0631" y1="212.5559" x2="274.6654" y2="-131.4334">
		<stop  offset="0" style="stop-color:#212121"/>
		<stop  offset="0.1364" style="stop-color:#212224"/>
		<stop  offset="0.2448" style="stop-color:#20252E"/>
		<stop  offset="0.3436" style="stop-color:#1F293F"/>
		<stop  offset="0.4366" style="stop-color:#1E3057"/>
		<stop  offset="0.5257" style="stop-color:#1C3875"/>
		<stop  offset="0.6117" style="stop-color:#1A439B"/>
		<stop  offset="0.6953" style="stop-color:#184FC7"/>
		<stop  offset="0.775" style="stop-color:#155DF9"/>
		<stop  offset="0.7833" style="stop-color:#155FFF"/>
		<stop  offset="0.9064" style="stop-color:#FF4215"/>
		<stop  offset="1" style="stop-color:#2AFF55"/>
	</linearGradient>
	<path fill="url(#SVGID_6_)" d="M177.304,18.658c2.584,0,4.897,0.441,6.938,1.322c2.041,0.882,3.762,2.132,5.163,3.75
		c1.4,1.618,2.469,3.569,3.206,5.851c0.736,2.282,1.105,4.837,1.105,7.662s-0.368,5.374-1.105,7.644
		c-0.737,2.271-1.806,4.215-3.206,5.833c-1.401,1.618-3.122,2.862-5.163,3.732c-2.041,0.87-4.354,1.304-6.938,1.304
		c-2.585,0-4.897-0.435-6.938-1.304c-2.041-0.87-3.768-2.113-5.181-3.732c-1.413-1.618-2.488-3.562-3.224-5.833
		c-0.737-2.27-1.105-4.819-1.105-7.644s0.368-5.38,1.105-7.662c0.736-2.282,1.811-4.233,3.224-5.851
		c1.413-1.618,3.14-2.868,5.181-3.75C172.408,19.099,174.72,18.658,177.304,18.658z M177.304,53.039
		c2.149,0,4.027-0.368,5.634-1.105c1.606-0.736,2.946-1.793,4.021-3.17c1.075-1.377,1.878-3.037,2.409-4.982
		c0.531-1.944,0.797-4.124,0.797-6.539c0-2.391-0.266-4.565-0.797-6.521c-0.532-1.956-1.335-3.629-2.409-5.018
		c-1.075-1.389-2.415-2.457-4.021-3.206c-1.607-0.748-3.484-1.123-5.634-1.123c-2.15,0-4.028,0.375-5.634,1.123
		c-1.607,0.749-2.947,1.818-4.021,3.206c-1.075,1.389-1.884,3.061-2.427,5.018c-0.543,1.956-0.815,4.13-0.815,6.521
		c0,2.415,0.272,4.595,0.815,6.539c0.543,1.945,1.352,3.605,2.427,4.982c1.074,1.377,2.415,2.434,4.021,3.17
		C173.277,52.672,175.154,53.039,177.304,53.039z"/>
	<linearGradient id="SVGID_7_" gradientUnits="userSpaceOnUse" x1="-1170.561" y1="2412.3831" x2="1162.7898" y2="-1629.099">
		<stop  offset="0" style="stop-color:#212121"/>
		<stop  offset="0.1364" style="stop-color:#212224"/>
		<stop  offset="0.2448" style="stop-color:#20252E"/>
		<stop  offset="0.3436" style="stop-color:#1F293F"/>
		<stop  offset="0.4366" style="stop-color:#1E3057"/>
		<stop  offset="0.5257" style="stop-color:#1C3875"/>
		<stop  offset="0.6117" style="stop-color:#1A439B"/>
		<stop  offset="0.6953" style="stop-color:#184FC7"/>
		<stop  offset="0.775" style="stop-color:#155DF9"/>
		<stop  offset="0.7833" style="stop-color:#155FFF"/>
		<stop  offset="0.9064" style="stop-color:#FF4215"/>
		<stop  offset="1" style="stop-color:#2AFF55"/>
	</linearGradient>
	<path fill="url(#SVGID_7_)" d="M207.266,2.572v52.713h-3.478V2.572H207.266z"/>
	<linearGradient id="SVGID_8_" gradientUnits="userSpaceOnUse" x1="100.7242" y1="267.6061" x2="299.3266" y2="-76.3832">
		<stop  offset="0" style="stop-color:#212121"/>
		<stop  offset="0.1364" style="stop-color:#212224"/>
		<stop  offset="0.2448" style="stop-color:#20252E"/>
		<stop  offset="0.3436" style="stop-color:#1F293F"/>
		<stop  offset="0.4366" style="stop-color:#1E3057"/>
		<stop  offset="0.5257" style="stop-color:#1C3875"/>
		<stop  offset="0.6117" style="stop-color:#1A439B"/>
		<stop  offset="0.6953" style="stop-color:#184FC7"/>
		<stop  offset="0.775" style="stop-color:#155DF9"/>
		<stop  offset="0.7833" style="stop-color:#155FFF"/>
		<stop  offset="0.9064" style="stop-color:#FF4215"/>
		<stop  offset="1" style="stop-color:#2AFF55"/>
	</linearGradient>
	<path fill="url(#SVGID_8_)" d="M233.749,18.658c2.584,0,4.897,0.441,6.938,1.322c2.041,0.882,3.762,2.132,5.163,3.75
		c1.4,1.618,2.469,3.569,3.206,5.851c0.736,2.282,1.105,4.837,1.105,7.662s-0.368,5.374-1.105,7.644
		c-0.737,2.271-1.806,4.215-3.206,5.833c-1.401,1.618-3.122,2.862-5.163,3.732c-2.041,0.87-4.354,1.304-6.938,1.304
		c-2.585,0-4.897-0.435-6.938-1.304c-2.041-0.87-3.768-2.113-5.181-3.732c-1.413-1.618-2.488-3.562-3.224-5.833
		c-0.737-2.27-1.105-4.819-1.105-7.644s0.368-5.38,1.105-7.662c0.736-2.282,1.811-4.233,3.224-5.851
		c1.413-1.618,3.14-2.868,5.181-3.75C228.852,19.099,231.164,18.658,233.749,18.658z M233.749,53.039
		c2.149,0,4.027-0.368,5.634-1.105c1.606-0.736,2.946-1.793,4.021-3.17c1.075-1.377,1.878-3.037,2.409-4.982
		c0.531-1.944,0.797-4.124,0.797-6.539c0-2.391-0.266-4.565-0.797-6.521c-0.532-1.956-1.335-3.629-2.409-5.018
		c-1.075-1.389-2.415-2.457-4.021-3.206c-1.607-0.748-3.484-1.123-5.634-1.123c-2.15,0-4.028,0.375-5.634,1.123
		c-1.607,0.749-2.947,1.818-4.021,3.206c-1.075,1.389-1.884,3.061-2.427,5.018c-0.543,1.956-0.815,4.13-0.815,6.521
		c0,2.415,0.272,4.595,0.815,6.539c0.543,1.945,1.352,3.605,2.427,4.982c1.074,1.377,2.415,2.434,4.021,3.17
		C229.721,52.672,231.599,53.039,233.749,53.039z"/>
	<linearGradient id="SVGID_9_" gradientUnits="userSpaceOnUse" x1="-29.0707" y1="540.7966" x2="350.667" y2="-116.9285">
		<stop  offset="0" style="stop-color:#212121"/>
		<stop  offset="0.1364" style="stop-color:#212224"/>
		<stop  offset="0.2448" style="stop-color:#20252E"/>
		<stop  offset="0.3436" style="stop-color:#1F293F"/>
		<stop  offset="0.4366" style="stop-color:#1E3057"/>
		<stop  offset="0.5257" style="stop-color:#1C3875"/>
		<stop  offset="0.6117" style="stop-color:#1A439B"/>
		<stop  offset="0.6953" style="stop-color:#184FC7"/>
		<stop  offset="0.775" style="stop-color:#155DF9"/>
		<stop  offset="0.7833" style="stop-color:#155FFF"/>
		<stop  offset="0.9064" style="stop-color:#FF4215"/>
		<stop  offset="1" style="stop-color:#2AFF55"/>
	</linearGradient>
	<path fill="url(#SVGID_9_)" d="M263.203,27.933c0.555-1.473,1.189-2.783,1.902-3.931c0.712-1.147,1.533-2.119,2.464-2.916
		c0.93-0.797,1.968-1.407,3.115-1.83c1.147-0.422,2.421-0.634,3.822-0.634c0.748,0,1.485,0.067,2.21,0.199
		c0.724,0.133,1.364,0.369,1.92,0.706l-0.29,2.391c-0.121,0.387-0.351,0.58-0.689,0.58c-0.29,0-0.731-0.084-1.322-0.254
		c-0.592-0.169-1.371-0.254-2.337-0.254c-1.401,0-2.639,0.212-3.714,0.634c-1.075,0.423-2.041,1.057-2.899,1.902
		c-0.857,0.846-1.606,1.89-2.246,3.134c-0.64,1.244-1.226,2.675-1.757,4.293v23.331h-3.478V19.238h1.848
		c0.41,0,0.7,0.085,0.869,0.254c0.169,0.169,0.278,0.459,0.326,0.869L263.203,27.933z"/>
	<linearGradient id="SVGID_10_" gradientUnits="userSpaceOnUse" x1="119.735" y1="346.2623" x2="329.9124" y2="-17.7758">
		<stop  offset="0" style="stop-color:#212121"/>
		<stop  offset="0.1364" style="stop-color:#212224"/>
		<stop  offset="0.2448" style="stop-color:#20252E"/>
		<stop  offset="0.3436" style="stop-color:#1F293F"/>
		<stop  offset="0.4366" style="stop-color:#1E3057"/>
		<stop  offset="0.5257" style="stop-color:#1C3875"/>
		<stop  offset="0.6117" style="stop-color:#1A439B"/>
		<stop  offset="0.6953" style="stop-color:#184FC7"/>
		<stop  offset="0.775" style="stop-color:#155DF9"/>
		<stop  offset="0.7833" style="stop-color:#155FFF"/>
		<stop  offset="0.9064" style="stop-color:#FF4215"/>
		<stop  offset="1" style="stop-color:#2AFF55"/>
	</linearGradient>
	<path fill="url(#SVGID_10_)" d="M284.722,35.831v0.688c0,2.705,0.314,5.085,0.942,7.137c0.628,2.053,1.522,3.774,2.681,5.163
		c1.159,1.389,2.56,2.434,4.202,3.134c1.642,0.701,3.478,1.051,5.507,1.051c1.811,0,3.381-0.199,4.71-0.598
		c1.328-0.399,2.445-0.845,3.351-1.34c0.906-0.495,1.624-0.942,2.156-1.34c0.531-0.399,0.917-0.598,1.159-0.598
		c0.314,0,0.556,0.121,0.725,0.362l0.942,1.159c-0.58,0.725-1.347,1.401-2.301,2.029c-0.954,0.628-2.017,1.166-3.188,1.612
		c-1.172,0.447-2.427,0.803-3.768,1.069c-1.34,0.266-2.687,0.399-4.04,0.399c-2.464,0-4.71-0.429-6.738-1.286
		c-2.029-0.857-3.768-2.107-5.217-3.75c-1.449-1.642-2.567-3.653-3.351-6.032c-0.785-2.379-1.177-5.102-1.177-8.17
		c0-2.584,0.368-4.969,1.105-7.155c0.736-2.186,1.799-4.07,3.188-5.652c1.389-1.582,3.091-2.82,5.108-3.714
		c2.016-0.893,4.305-1.34,6.866-1.34c2.029,0,3.913,0.35,5.652,1.051c1.739,0.701,3.248,1.721,4.529,3.061
		c1.28,1.34,2.288,2.989,3.025,4.945c0.736,1.956,1.105,4.203,1.105,6.738c0,0.532-0.072,0.894-0.217,1.087
		c-0.145,0.194-0.386,0.29-0.724,0.29H284.722z M308.778,33.621c0-1.932-0.272-3.665-0.815-5.199
		c-0.543-1.534-1.31-2.831-2.301-3.895c-0.991-1.063-2.168-1.878-3.532-2.445c-1.365-0.567-2.868-0.851-4.511-0.851
		c-1.86,0-3.527,0.29-5,0.87c-1.474,0.58-2.748,1.413-3.822,2.5c-1.075,1.087-1.938,2.391-2.59,3.913
		c-0.652,1.522-1.087,3.224-1.304,5.108H308.778z"/>
	<linearGradient id="SVGID_11_" gradientUnits="userSpaceOnUse" x1="28.2934" y1="572.9339" x2="356.3169" y2="4.7806">
		<stop  offset="0" style="stop-color:#212121"/>
		<stop  offset="0.1364" style="stop-color:#212224"/>
		<stop  offset="0.2448" style="stop-color:#20252E"/>
		<stop  offset="0.3436" style="stop-color:#1F293F"/>
		<stop  offset="0.4366" style="stop-color:#1E3057"/>
		<stop  offset="0.5257" style="stop-color:#1C3875"/>
		<stop  offset="0.6117" style="stop-color:#1A439B"/>
		<stop  offset="0.6953" style="stop-color:#184FC7"/>
		<stop  offset="0.775" style="stop-color:#155DF9"/>
		<stop  offset="0.7833" style="stop-color:#155FFF"/>
		<stop  offset="0.9064" style="stop-color:#FF4215"/>
		<stop  offset="1" style="stop-color:#2AFF55"/>
	</linearGradient>
	<path fill="url(#SVGID_11_)" d="M349.319,2.572v52.713h-1.884c-0.629,0-0.991-0.314-1.087-0.942l-0.362-5.688
		c-1.594,2.174-3.454,3.901-5.579,5.181c-2.126,1.28-4.517,1.92-7.173,1.92c-4.444,0-7.898-1.534-10.362-4.601
		c-2.464-3.067-3.695-7.668-3.695-13.803c0-2.632,0.344-5.09,1.033-7.373c0.688-2.282,1.696-4.263,3.025-5.942
		c1.328-1.678,2.965-3.001,4.909-3.967c1.944-0.966,4.184-1.449,6.721-1.449c2.439,0,4.552,0.447,6.34,1.34
		c1.787,0.894,3.345,2.223,4.674,3.985V2.572H349.319z M345.877,26.991c-1.377-2.077-2.904-3.538-4.583-4.384
		c-1.679-0.845-3.593-1.268-5.742-1.268c-2.126,0-3.985,0.387-5.579,1.159c-1.594,0.773-2.929,1.866-4.003,3.279
		c-1.075,1.413-1.884,3.104-2.427,5.072c-0.544,1.969-0.815,4.136-0.815,6.503c0,5.362,0.984,9.305,2.953,11.829
		c1.968,2.524,4.812,3.786,8.532,3.786c2.367,0,4.528-0.616,6.485-1.848c1.956-1.232,3.683-2.958,5.181-5.181V26.991z"/>
</g>
<g>
</g>
<g>
</g>
<g>
</g>
<g>
</g>
<g>
</g>
<g>
</g>
<g>
</g>
<g>
</g>
<g>
</g>
<g>
</g>
<g>
</g>
<g>
</g>
<g>
</g>
<g>
</g>
<g>
</g>
</svg>
